<mxfile host="app.diagrams.net" modified="2023-12-07T22:37:31.581Z" agent="Mozilla/5.0 (Macintosh; Intel Mac OS X 10_15_7) AppleWebKit/537.36 (KHTML, like Gecko) Chrome/119.0.0.0 Safari/537.36" etag="pNMullIGlSHYF3EVm8Uy" version="22.1.7" type="device">
  <diagram name="Page-1" id="RJHYLcZ1jDG1yZvwoqT7">
    <mxGraphModel dx="1434" dy="797" grid="1" gridSize="10" guides="1" tooltips="1" connect="1" arrows="1" fold="1" page="1" pageScale="1" pageWidth="850" pageHeight="1100" math="0" shadow="0">
      <root>
        <mxCell id="0" />
        <mxCell id="1" parent="0" />
        <mxCell id="pJWEtmAryjSaF4mdjsHe-98" value="" style="rounded=0;whiteSpace=wrap;html=1;" vertex="1" parent="1">
          <mxGeometry x="120" y="120" width="720" height="500" as="geometry" />
        </mxCell>
        <mxCell id="pJWEtmAryjSaF4mdjsHe-65" value="" style="rounded=0;whiteSpace=wrap;html=1;" vertex="1" parent="1">
          <mxGeometry x="239" y="270" width="130" height="210" as="geometry" />
        </mxCell>
        <mxCell id="pJWEtmAryjSaF4mdjsHe-47" value="" style="rounded=0;whiteSpace=wrap;html=1;" vertex="1" parent="1">
          <mxGeometry x="536" y="380" width="280" height="210" as="geometry" />
        </mxCell>
        <mxCell id="pJWEtmAryjSaF4mdjsHe-1" value="" style="rounded=1;whiteSpace=wrap;html=1;" vertex="1" parent="1">
          <mxGeometry x="259" y="325" width="90" height="60" as="geometry" />
        </mxCell>
        <mxCell id="pJWEtmAryjSaF4mdjsHe-2" value="Mcrouter" style="text;html=1;strokeColor=none;fillColor=none;align=center;verticalAlign=middle;whiteSpace=wrap;rounded=0;" vertex="1" parent="1">
          <mxGeometry x="274" y="340" width="60" height="30" as="geometry" />
        </mxCell>
        <mxCell id="pJWEtmAryjSaF4mdjsHe-5" value="" style="rounded=1;whiteSpace=wrap;html=1;" vertex="1" parent="1">
          <mxGeometry x="259" y="400" width="90" height="60" as="geometry" />
        </mxCell>
        <mxCell id="pJWEtmAryjSaF4mdjsHe-6" value="Mcrouter" style="text;html=1;strokeColor=none;fillColor=none;align=center;verticalAlign=middle;whiteSpace=wrap;rounded=0;" vertex="1" parent="1">
          <mxGeometry x="274" y="415" width="60" height="30" as="geometry" />
        </mxCell>
        <mxCell id="pJWEtmAryjSaF4mdjsHe-28" value="" style="rounded=1;whiteSpace=wrap;html=1;" vertex="1" parent="1">
          <mxGeometry x="556" y="425" width="90" height="60" as="geometry" />
        </mxCell>
        <mxCell id="pJWEtmAryjSaF4mdjsHe-29" value="Mcrouter" style="text;html=1;strokeColor=none;fillColor=none;align=center;verticalAlign=middle;whiteSpace=wrap;rounded=0;" vertex="1" parent="1">
          <mxGeometry x="571" y="440" width="60" height="30" as="geometry" />
        </mxCell>
        <mxCell id="pJWEtmAryjSaF4mdjsHe-30" value="" style="rounded=1;whiteSpace=wrap;html=1;" vertex="1" parent="1">
          <mxGeometry x="556" y="505" width="90" height="60" as="geometry" />
        </mxCell>
        <mxCell id="pJWEtmAryjSaF4mdjsHe-31" value="Mcrouter" style="text;html=1;strokeColor=none;fillColor=none;align=center;verticalAlign=middle;whiteSpace=wrap;rounded=0;" vertex="1" parent="1">
          <mxGeometry x="571" y="520" width="60" height="30" as="geometry" />
        </mxCell>
        <mxCell id="pJWEtmAryjSaF4mdjsHe-32" value="" style="rhombus;whiteSpace=wrap;html=1;" vertex="1" parent="1">
          <mxGeometry x="696" y="440" width="100" height="50" as="geometry" />
        </mxCell>
        <mxCell id="pJWEtmAryjSaF4mdjsHe-33" value="" style="rhombus;whiteSpace=wrap;html=1;" vertex="1" parent="1">
          <mxGeometry x="696" y="430" width="100" height="50" as="geometry" />
        </mxCell>
        <mxCell id="pJWEtmAryjSaF4mdjsHe-34" value="" style="rhombus;whiteSpace=wrap;html=1;" vertex="1" parent="1">
          <mxGeometry x="696" y="420" width="100" height="50" as="geometry" />
        </mxCell>
        <mxCell id="pJWEtmAryjSaF4mdjsHe-35" value="memcached" style="text;html=1;strokeColor=none;fillColor=none;align=center;verticalAlign=middle;whiteSpace=wrap;rounded=0;" vertex="1" parent="1">
          <mxGeometry x="716" y="430" width="60" height="30" as="geometry" />
        </mxCell>
        <mxCell id="pJWEtmAryjSaF4mdjsHe-36" value="" style="rhombus;whiteSpace=wrap;html=1;" vertex="1" parent="1">
          <mxGeometry x="696" y="525" width="100" height="50" as="geometry" />
        </mxCell>
        <mxCell id="pJWEtmAryjSaF4mdjsHe-37" value="" style="rhombus;whiteSpace=wrap;html=1;" vertex="1" parent="1">
          <mxGeometry x="696" y="515" width="100" height="50" as="geometry" />
        </mxCell>
        <mxCell id="pJWEtmAryjSaF4mdjsHe-38" value="" style="rhombus;whiteSpace=wrap;html=1;" vertex="1" parent="1">
          <mxGeometry x="696" y="505" width="100" height="50" as="geometry" />
        </mxCell>
        <mxCell id="pJWEtmAryjSaF4mdjsHe-39" value="memcached" style="text;html=1;strokeColor=none;fillColor=none;align=center;verticalAlign=middle;whiteSpace=wrap;rounded=0;" vertex="1" parent="1">
          <mxGeometry x="716" y="515" width="60" height="30" as="geometry" />
        </mxCell>
        <mxCell id="pJWEtmAryjSaF4mdjsHe-45" value="Shard 2" style="text;html=1;strokeColor=none;fillColor=none;align=center;verticalAlign=middle;whiteSpace=wrap;rounded=0;" vertex="1" parent="1">
          <mxGeometry x="646" y="390" width="60" height="30" as="geometry" />
        </mxCell>
        <mxCell id="pJWEtmAryjSaF4mdjsHe-48" value="" style="rhombus;whiteSpace=wrap;html=1;" vertex="1" parent="1">
          <mxGeometry x="436" y="450" width="80" height="80" as="geometry" />
        </mxCell>
        <mxCell id="pJWEtmAryjSaF4mdjsHe-42" value="Load Balancer" style="text;html=1;strokeColor=none;fillColor=none;align=center;verticalAlign=middle;whiteSpace=wrap;rounded=0;" vertex="1" parent="1">
          <mxGeometry x="446" y="472" width="60" height="30" as="geometry" />
        </mxCell>
        <mxCell id="pJWEtmAryjSaF4mdjsHe-49" value="" style="rounded=0;whiteSpace=wrap;html=1;" vertex="1" parent="1">
          <mxGeometry x="536" y="150" width="280" height="210" as="geometry" />
        </mxCell>
        <mxCell id="pJWEtmAryjSaF4mdjsHe-50" value="" style="rounded=1;whiteSpace=wrap;html=1;" vertex="1" parent="1">
          <mxGeometry x="556" y="195" width="90" height="60" as="geometry" />
        </mxCell>
        <mxCell id="pJWEtmAryjSaF4mdjsHe-51" value="Mcrouter" style="text;html=1;strokeColor=none;fillColor=none;align=center;verticalAlign=middle;whiteSpace=wrap;rounded=0;" vertex="1" parent="1">
          <mxGeometry x="571" y="210" width="60" height="30" as="geometry" />
        </mxCell>
        <mxCell id="pJWEtmAryjSaF4mdjsHe-52" value="" style="rounded=1;whiteSpace=wrap;html=1;" vertex="1" parent="1">
          <mxGeometry x="556" y="275" width="90" height="60" as="geometry" />
        </mxCell>
        <mxCell id="pJWEtmAryjSaF4mdjsHe-53" value="Mcrouter" style="text;html=1;strokeColor=none;fillColor=none;align=center;verticalAlign=middle;whiteSpace=wrap;rounded=0;" vertex="1" parent="1">
          <mxGeometry x="571" y="290" width="60" height="30" as="geometry" />
        </mxCell>
        <mxCell id="pJWEtmAryjSaF4mdjsHe-54" value="" style="rhombus;whiteSpace=wrap;html=1;" vertex="1" parent="1">
          <mxGeometry x="696" y="210" width="100" height="50" as="geometry" />
        </mxCell>
        <mxCell id="pJWEtmAryjSaF4mdjsHe-55" value="" style="rhombus;whiteSpace=wrap;html=1;" vertex="1" parent="1">
          <mxGeometry x="696" y="200" width="100" height="50" as="geometry" />
        </mxCell>
        <mxCell id="pJWEtmAryjSaF4mdjsHe-56" value="" style="rhombus;whiteSpace=wrap;html=1;" vertex="1" parent="1">
          <mxGeometry x="696" y="190" width="100" height="50" as="geometry" />
        </mxCell>
        <mxCell id="pJWEtmAryjSaF4mdjsHe-57" value="memcached" style="text;html=1;strokeColor=none;fillColor=none;align=center;verticalAlign=middle;whiteSpace=wrap;rounded=0;" vertex="1" parent="1">
          <mxGeometry x="716" y="200" width="60" height="30" as="geometry" />
        </mxCell>
        <mxCell id="pJWEtmAryjSaF4mdjsHe-58" value="" style="rhombus;whiteSpace=wrap;html=1;" vertex="1" parent="1">
          <mxGeometry x="696" y="295" width="100" height="50" as="geometry" />
        </mxCell>
        <mxCell id="pJWEtmAryjSaF4mdjsHe-59" value="" style="rhombus;whiteSpace=wrap;html=1;" vertex="1" parent="1">
          <mxGeometry x="696" y="285" width="100" height="50" as="geometry" />
        </mxCell>
        <mxCell id="pJWEtmAryjSaF4mdjsHe-60" value="" style="rhombus;whiteSpace=wrap;html=1;" vertex="1" parent="1">
          <mxGeometry x="696" y="275" width="100" height="50" as="geometry" />
        </mxCell>
        <mxCell id="pJWEtmAryjSaF4mdjsHe-61" value="memcached" style="text;html=1;strokeColor=none;fillColor=none;align=center;verticalAlign=middle;whiteSpace=wrap;rounded=0;" vertex="1" parent="1">
          <mxGeometry x="716" y="285" width="60" height="30" as="geometry" />
        </mxCell>
        <mxCell id="pJWEtmAryjSaF4mdjsHe-62" value="Shard 1" style="text;html=1;strokeColor=none;fillColor=none;align=center;verticalAlign=middle;whiteSpace=wrap;rounded=0;" vertex="1" parent="1">
          <mxGeometry x="646" y="160" width="60" height="30" as="geometry" />
        </mxCell>
        <mxCell id="pJWEtmAryjSaF4mdjsHe-63" value="" style="rhombus;whiteSpace=wrap;html=1;" vertex="1" parent="1">
          <mxGeometry x="436" y="220" width="80" height="80" as="geometry" />
        </mxCell>
        <mxCell id="pJWEtmAryjSaF4mdjsHe-64" value="Load Balancer" style="text;html=1;strokeColor=none;fillColor=none;align=center;verticalAlign=middle;whiteSpace=wrap;rounded=0;" vertex="1" parent="1">
          <mxGeometry x="446" y="242" width="60" height="30" as="geometry" />
        </mxCell>
        <mxCell id="pJWEtmAryjSaF4mdjsHe-66" value="Gateway Mcrouter Pool" style="text;html=1;strokeColor=none;fillColor=none;align=center;verticalAlign=middle;whiteSpace=wrap;rounded=0;" vertex="1" parent="1">
          <mxGeometry x="259" y="280" width="90" height="30" as="geometry" />
        </mxCell>
        <mxCell id="pJWEtmAryjSaF4mdjsHe-67" value="" style="endArrow=classic;html=1;rounded=0;exitX=1;exitY=0.5;exitDx=0;exitDy=0;" edge="1" parent="1" source="pJWEtmAryjSaF4mdjsHe-48">
          <mxGeometry width="50" height="50" relative="1" as="geometry">
            <mxPoint x="446" y="440" as="sourcePoint" />
            <mxPoint x="546" y="460" as="targetPoint" />
          </mxGeometry>
        </mxCell>
        <mxCell id="pJWEtmAryjSaF4mdjsHe-68" value="" style="endArrow=classic;html=1;rounded=0;" edge="1" parent="1">
          <mxGeometry width="50" height="50" relative="1" as="geometry">
            <mxPoint x="516" y="490" as="sourcePoint" />
            <mxPoint x="546" y="520" as="targetPoint" />
          </mxGeometry>
        </mxCell>
        <mxCell id="pJWEtmAryjSaF4mdjsHe-69" value="" style="endArrow=classic;html=1;rounded=0;exitX=1;exitY=0.5;exitDx=0;exitDy=0;" edge="1" parent="1" source="pJWEtmAryjSaF4mdjsHe-63">
          <mxGeometry width="50" height="50" relative="1" as="geometry">
            <mxPoint x="446" y="440" as="sourcePoint" />
            <mxPoint x="546" y="230" as="targetPoint" />
          </mxGeometry>
        </mxCell>
        <mxCell id="pJWEtmAryjSaF4mdjsHe-70" value="" style="endArrow=classic;html=1;rounded=0;exitX=1;exitY=0.5;exitDx=0;exitDy=0;" edge="1" parent="1" source="pJWEtmAryjSaF4mdjsHe-63">
          <mxGeometry width="50" height="50" relative="1" as="geometry">
            <mxPoint x="446" y="440" as="sourcePoint" />
            <mxPoint x="546" y="290" as="targetPoint" />
          </mxGeometry>
        </mxCell>
        <mxCell id="pJWEtmAryjSaF4mdjsHe-72" value="" style="endArrow=classic;html=1;rounded=0;exitX=1;exitY=0.5;exitDx=0;exitDy=0;" edge="1" parent="1" source="pJWEtmAryjSaF4mdjsHe-50">
          <mxGeometry width="50" height="50" relative="1" as="geometry">
            <mxPoint x="656" y="225" as="sourcePoint" />
            <mxPoint x="686" y="225" as="targetPoint" />
          </mxGeometry>
        </mxCell>
        <mxCell id="pJWEtmAryjSaF4mdjsHe-73" value="" style="endArrow=classic;html=1;rounded=0;" edge="1" parent="1">
          <mxGeometry width="50" height="50" relative="1" as="geometry">
            <mxPoint x="646" y="309" as="sourcePoint" />
            <mxPoint x="685" y="309" as="targetPoint" />
          </mxGeometry>
        </mxCell>
        <mxCell id="pJWEtmAryjSaF4mdjsHe-74" value="" style="endArrow=classic;html=1;rounded=0;exitX=1;exitY=0.5;exitDx=0;exitDy=0;" edge="1" parent="1" source="pJWEtmAryjSaF4mdjsHe-28">
          <mxGeometry width="50" height="50" relative="1" as="geometry">
            <mxPoint x="657" y="457" as="sourcePoint" />
            <mxPoint x="687" y="455" as="targetPoint" />
          </mxGeometry>
        </mxCell>
        <mxCell id="pJWEtmAryjSaF4mdjsHe-75" value="" style="endArrow=classic;html=1;rounded=0;exitX=1;exitY=0.5;exitDx=0;exitDy=0;" edge="1" parent="1" source="pJWEtmAryjSaF4mdjsHe-30">
          <mxGeometry width="50" height="50" relative="1" as="geometry">
            <mxPoint x="656" y="541" as="sourcePoint" />
            <mxPoint x="686" y="535" as="targetPoint" />
          </mxGeometry>
        </mxCell>
        <mxCell id="pJWEtmAryjSaF4mdjsHe-76" value="" style="endArrow=classic;html=1;rounded=0;" edge="1" parent="1">
          <mxGeometry width="50" height="50" relative="1" as="geometry">
            <mxPoint x="370" y="370" as="sourcePoint" />
            <mxPoint x="446" y="290" as="targetPoint" />
          </mxGeometry>
        </mxCell>
        <mxCell id="pJWEtmAryjSaF4mdjsHe-77" value="" style="endArrow=classic;html=1;rounded=0;" edge="1" parent="1">
          <mxGeometry width="50" height="50" relative="1" as="geometry">
            <mxPoint x="370" y="390" as="sourcePoint" />
            <mxPoint x="446" y="460" as="targetPoint" />
          </mxGeometry>
        </mxCell>
        <mxCell id="pJWEtmAryjSaF4mdjsHe-79" value="" style="endArrow=none;dashed=1;html=1;rounded=0;" edge="1" parent="1">
          <mxGeometry width="50" height="50" relative="1" as="geometry">
            <mxPoint x="663" y="530" as="sourcePoint" />
            <mxPoint x="663" y="460" as="targetPoint" />
          </mxGeometry>
        </mxCell>
        <mxCell id="pJWEtmAryjSaF4mdjsHe-80" value="" style="endArrow=none;dashed=1;html=1;rounded=0;" edge="1" parent="1">
          <mxGeometry width="50" height="50" relative="1" as="geometry">
            <mxPoint x="663" y="300" as="sourcePoint" />
            <mxPoint x="663" y="230" as="targetPoint" />
          </mxGeometry>
        </mxCell>
        <mxCell id="pJWEtmAryjSaF4mdjsHe-81" value="" style="rhombus;whiteSpace=wrap;html=1;" vertex="1" parent="1">
          <mxGeometry x="140" y="351" width="80" height="80" as="geometry" />
        </mxCell>
        <mxCell id="pJWEtmAryjSaF4mdjsHe-82" value="Load Balancer" style="text;html=1;strokeColor=none;fillColor=none;align=center;verticalAlign=middle;whiteSpace=wrap;rounded=0;" vertex="1" parent="1">
          <mxGeometry x="150" y="373" width="60" height="30" as="geometry" />
        </mxCell>
        <mxCell id="pJWEtmAryjSaF4mdjsHe-83" value="" style="endArrow=classic;html=1;rounded=0;exitX=1;exitY=0.5;exitDx=0;exitDy=0;" edge="1" parent="1" source="pJWEtmAryjSaF4mdjsHe-81">
          <mxGeometry width="50" height="50" relative="1" as="geometry">
            <mxPoint x="150" y="341" as="sourcePoint" />
            <mxPoint x="250" y="361" as="targetPoint" />
          </mxGeometry>
        </mxCell>
        <mxCell id="pJWEtmAryjSaF4mdjsHe-84" value="" style="endArrow=classic;html=1;rounded=0;" edge="1" parent="1">
          <mxGeometry width="50" height="50" relative="1" as="geometry">
            <mxPoint x="220" y="391" as="sourcePoint" />
            <mxPoint x="250" y="421" as="targetPoint" />
          </mxGeometry>
        </mxCell>
        <mxCell id="pJWEtmAryjSaF4mdjsHe-87" value="" style="ellipse;whiteSpace=wrap;html=1;" vertex="1" parent="1">
          <mxGeometry x="10" y="365" width="88.5" height="50" as="geometry" />
        </mxCell>
        <mxCell id="pJWEtmAryjSaF4mdjsHe-88" value="App" style="text;html=1;strokeColor=none;fillColor=none;align=center;verticalAlign=middle;whiteSpace=wrap;rounded=0;" vertex="1" parent="1">
          <mxGeometry x="24.25" y="375" width="60" height="30" as="geometry" />
        </mxCell>
        <mxCell id="pJWEtmAryjSaF4mdjsHe-91" value="" style="ellipse;whiteSpace=wrap;html=1;" vertex="1" parent="1">
          <mxGeometry x="10" y="425" width="88.5" height="50" as="geometry" />
        </mxCell>
        <mxCell id="pJWEtmAryjSaF4mdjsHe-92" value="App" style="text;html=1;strokeColor=none;fillColor=none;align=center;verticalAlign=middle;whiteSpace=wrap;rounded=0;" vertex="1" parent="1">
          <mxGeometry x="24.25" y="435" width="60" height="30" as="geometry" />
        </mxCell>
        <mxCell id="pJWEtmAryjSaF4mdjsHe-93" value="" style="ellipse;whiteSpace=wrap;html=1;" vertex="1" parent="1">
          <mxGeometry x="10" y="306" width="88.5" height="50" as="geometry" />
        </mxCell>
        <mxCell id="pJWEtmAryjSaF4mdjsHe-94" value="App" style="text;html=1;strokeColor=none;fillColor=none;align=center;verticalAlign=middle;whiteSpace=wrap;rounded=0;" vertex="1" parent="1">
          <mxGeometry x="24.25" y="316" width="60" height="30" as="geometry" />
        </mxCell>
        <mxCell id="pJWEtmAryjSaF4mdjsHe-95" value="" style="endArrow=classic;html=1;rounded=0;" edge="1" parent="1">
          <mxGeometry width="50" height="50" relative="1" as="geometry">
            <mxPoint x="100" y="390" as="sourcePoint" />
            <mxPoint x="130" y="390" as="targetPoint" />
          </mxGeometry>
        </mxCell>
        <mxCell id="pJWEtmAryjSaF4mdjsHe-96" value="" style="endArrow=classic;html=1;rounded=0;" edge="1" parent="1">
          <mxGeometry width="50" height="50" relative="1" as="geometry">
            <mxPoint x="100" y="330" as="sourcePoint" />
            <mxPoint x="140" y="370" as="targetPoint" />
          </mxGeometry>
        </mxCell>
        <mxCell id="pJWEtmAryjSaF4mdjsHe-97" value="" style="endArrow=classic;html=1;rounded=0;" edge="1" parent="1">
          <mxGeometry width="50" height="50" relative="1" as="geometry">
            <mxPoint x="100" y="450" as="sourcePoint" />
            <mxPoint x="140" y="410" as="targetPoint" />
          </mxGeometry>
        </mxCell>
        <mxCell id="pJWEtmAryjSaF4mdjsHe-99" value="&lt;font style=&quot;font-size: 24px;&quot;&gt;Memshack&lt;/font&gt;" style="text;html=1;strokeColor=none;fillColor=none;align=center;verticalAlign=middle;whiteSpace=wrap;rounded=0;" vertex="1" parent="1">
          <mxGeometry x="130" y="140" width="150" height="30" as="geometry" />
        </mxCell>
      </root>
    </mxGraphModel>
  </diagram>
</mxfile>
